<svg xmlns="http://www.w3.org/2000/svg" viewbox="0 0 320 78" version="1.1"><path d="M 11.984 21.863 C 8.647 23.648, 4.176 29.510, 5.298 30.631 C 5.593 30.927, 7.602 31.405, 9.761 31.695 C 13.055 32.137, 14.108 31.801, 16.298 29.611 C 17.734 28.175, 19.504 27, 20.232 27 C 22.545 27, 26 30.041, 26 32.078 C 26 34.368, 23.692 35.487, 15.811 37.014 C 5.865 38.941, 0.896 45.185, 3.022 53.082 C 5.079 60.722, 15.009 63.519, 22.360 58.530 C 25.812 56.188, 26 56.162, 26 58.030 C 26 59.727, 26.692 60, 31 60 L 36 60 36 45.468 C 36 28.910, 35.021 25.203, 29.810 22.026 C 25.460 19.373, 16.789 19.294, 11.984 21.863 M 24.744 41.663 C 24.329 42.303, 22.079 43.141, 19.745 43.526 C 14.615 44.372, 13 45.544, 13 48.422 C 13 51.087, 14.776 53, 17.250 53 C 20.438 53, 24.946 50.065, 25.568 47.584 C 26.353 44.457, 25.748 40.114, 24.744 41.663" stroke="none" fill="#ec1f48" fill-rule="evenodd"/><path d="M 58.882 23.882 L 55 27.765 55 24.382 L 55 21 50 21 L 45 21 45 40.500 L 45 60 49.849 60 L 54.698 60 55.306 50.748 C 56.177 37.492, 59.584 29, 64.033 29 C 67.717 29, 68.492 31.789, 68.723 45.902 L 68.947 59.500 73.973 59.802 L 79 60.105 79 45.117 C 79 29.616, 78.344 26.076, 74.759 22.250 C 73.124 20.504, 71.543 20, 67.708 20 C 63.299 20, 62.345 20.420, 58.882 23.882 M 95.411 21.891 C 92.330 23.770, 88 28.550, 88 30.074 C 88 30.516, 89.963 31.172, 92.362 31.532 C 96.218 32.110, 97.035 31.874, 99.412 29.497 C 101.532 27.377, 102.669 26.951, 104.790 27.484 C 107.746 28.225, 108.961 29.596, 108.985 32.215 C 109.004 34.375, 106.467 35.749, 100.875 36.609 C 95.352 37.458, 89.595 40.313, 87.566 43.209 C 85.730 45.830, 85.519 51.851, 87.139 55.405 C 88.491 58.373, 93.563 61, 97.941 61 C 99.667 61, 102.862 60.091, 105.040 58.980 C 108.364 57.284, 109 57.203, 109 58.480 C 109 59.637, 110.193 60, 114 60 L 119 60 119 44.950 C 119 28.128, 118.234 25.333, 112.701 21.960 C 108.419 19.348, 99.638 19.314, 95.411 21.891 M 192.500 21.535 C 189.279 23.170, 185.013 27.779, 185.005 29.633 C 184.999 30.917, 188.200 31.966, 192.183 31.986 C 193.948 31.995, 195.071 31.350, 195.468 30.099 C 196.133 28.005, 199.935 26.654, 202.448 27.619 C 204.581 28.437, 206.138 31.477, 205.404 33.389 C 204.750 35.093, 204.039 35.359, 195.690 37.015 C 185.077 39.119, 179.643 46.835, 183.330 54.566 C 186.484 61.179, 196.505 62.960, 203.104 58.081 C 205.978 55.957, 206 55.956, 206 57.970 C 206 59.744, 206.642 60, 211.088 60 L 216.176 60 215.838 44.250 C 215.471 27.164, 215.025 25.634, 209.305 21.863 C 205.808 19.557, 196.745 19.380, 192.500 21.535 M 128.727 32.750 C 130.667 39.213, 133.260 47.875, 134.489 52 L 136.724 59.500 142.093 59.500 L 147.462 59.500 149.888 49 C 151.222 43.225, 152.438 38.950, 152.590 39.500 C 152.742 40.050, 153.852 44.887, 155.057 50.250 L 157.247 60 162.546 60 C 167.647 60, 167.883 59.879, 168.872 56.750 C 170.683 51.016, 178 23.244, 178 22.102 C 178 21.448, 175.994 21, 173.069 21 L 168.138 21 165.819 30.997 C 164.544 36.495, 163.253 40.995, 162.950 40.997 C 162.648 40.998, 161.833 38.188, 161.140 34.750 C 158.252 20.429, 158.605 21, 152.642 21 L 147.361 21 145 31 C 143.702 36.500, 142.352 41, 142 41 C 141.648 41, 140.298 36.500, 139 31 L 136.639 21 130.920 21 L 125.200 21 128.727 32.750 M 222.207 22.196 C 222.462 22.913, 225.076 31.712, 228.017 41.750 L 233.364 60 238.589 60 L 243.813 60 246.103 50.500 C 247.363 45.275, 248.683 41, 249.037 41 C 249.391 41, 250.557 45.163, 251.628 50.250 L 253.574 59.500 259.104 59.794 L 264.634 60.089 269.379 42.294 C 271.989 32.508, 274.360 23.688, 274.647 22.695 C 275.111 21.091, 274.580 20.924, 269.889 21.195 L 264.607 21.500 262.054 32.410 L 259.500 43.319 257.117 32.160 L 254.733 21 249.414 21 C 243.375 21, 244.092 19.851, 240.424 35.410 L 238.622 43.051 236.039 32.275 L 233.455 21.500 227.600 21.196 C 223.123 20.964, 221.854 21.200, 222.207 22.196 M 280.360 22.496 C 280.676 23.319, 283.424 28.304, 286.467 33.575 C 291.981 43.125, 292 43.187, 292 51.579 L 292 60 298 60 L 304 60 304.002 51.750 L 304.003 43.500 310.502 32.684 C 314.076 26.736, 317 21.673, 317 21.434 C 317 21.195, 314.534 21, 311.520 21 C 306.121 21, 306.010 21.060, 303.971 25.057 C 302.832 27.289, 301.059 30.499, 300.030 32.191 L 298.160 35.267 294.567 28.133 L 290.975 21 285.380 21 C 280.825 21, 279.893 21.278, 280.360 22.496 M 202 42.684 C 200.075 43.346, 197.738 43.913, 196.807 43.944 C 194.526 44.020, 192.100 47.668, 192.730 50.076 C 194.420 56.538, 206.769 50.624, 205.823 43.805 C 205.517 41.605, 205.313 41.546, 202 42.684 M 102.873 43.454 C 96.735 45.147, 96 45.689, 96 48.524 C 96 53.388, 104.319 54.238, 107.499 49.698 C 109.041 47.496, 109.591 41.930, 108.250 42.089 C 107.838 42.139, 105.418 42.753, 102.873 43.454" stroke="none" fill="#00b1b0" fill-rule="evenodd"/></path></path></svg>